# xmcd CD database file
#
# Track frame offsets:
#	150
#	13567
#	26341
#	38010
#	95946
#	131229
#	174585
#	202657
#	237958
#	256778
#	294225
#	311628
#	341952
#	352267
#
# Disc length: 4931 seconds
#
# Revision: 0
# Processed by: cddbd v1.5.2PL0 Copyright (c) Steve Scherf et al.
# Submitted via: CDex 1.51
#
DISCID=c913410e
DTITLE=VA - Der Jazz in Deutschland - Vol 3 CD 8 - Ein frischer Wind
DYEAR=2008
DGENRE=Jazz
TTITLE0=En Avant
TTITLE1=Minority
TTITLE2=Take Five
TTITLE3=Ein Nachmittag in Berlin
TTITLE4=Blues-Gedanken
TTITLE5=Django
TTITLE6=Hahnentor
TTITLE7=Kein Klagelied
TTITLE8=Springs
TTITLE9=Maschinerie
TTITLE10=Enfant
TTITLE11=Hush
TTITLE12=Oh Lord, Don't Let It Drop An Atomic Bomb [recte: Oh Lord, Don't Let Them Drop That Atomic Bomb On Me]
TTITLE13=From BeBand To BigBop
EXTD=YEAR: 2008
EXTT0=
EXTT1=
EXTT2=
EXTT3=
EXTT4=
EXTT5=
EXTT6=
EXTT7=
EXTT8=
EXTT9=
EXTT10=
EXTT11=
EXTT12=
EXTT13=
PLAYORDER=
